<svg xmlns="http://www.w3.org/2000/svg" id="Camada_2" data-name="Camada 2" viewBox="0 0 896.39 168.4"><defs><style>      .cls-1 {        fill: #1d1d1b;      }    </style></defs><g id="Camada_2_c&#xF3;pia" data-name="Camada 2 c&#xF3;pia"><g><path class="cls-1" d="m77.81,100.92l24.83-35.4,13.58-19.36L148.6,0h63.42s18.8.18,18.8.18c17.24,0,23.93,7.67,20.07,23-1.68,6.4-5.33,14.06-10.96,23l-13.58,19.36c-5.25,6.84-10.8,12.74-16.64,17.7-13.89,11.91-30.46,17.81-49.71,17.69h-18.24s-63.96-.02-63.96-.02ZM218.48,34.27c4.9-10.48,1.72-15.72-9.53-15.72h-23s-32.96,46.98-32.96,46.98l-12.07,17.21h21.5c15.05-.76,26.27-6.28,33.65-16.53l22.4-31.93Z"></path><path class="cls-1" d="m351.74,40.09l-87.07,60.87h-25.31s-25.04-.01-25.04-.01L345.11,8.98C353.92,3.02,363.31.05,373.29.05h35.38s-41.31,58.9-41.31,58.9l-29.47,42.02h-28.85s42.7-60.89,42.7-60.89Z"></path><path class="cls-1" d="m386.74,100.99l57.79-82.39h-35.93S421.6.06,421.6.06l82.61.02h40.97s-13,18.54-13,18.54h-37.29s-57.79,82.38-57.79,82.38h-50.35Z"></path><path class="cls-1" d="m640.44.11c17.16.11,25.28,4.64,24.37,13.57.22,4.85-1.88,11.47-6.3,19.85-12.1,16.99-23.68,25.48-34.75,25.47h-2.18s-11.16,42.69-11.16,42.69h-25.04s-25.31-.01-25.31-.01l10.34-42.69h-3.27s-29.47,42.02-29.47,42.02h-9.25s-41.1-.01-41.1-.01l24.83-35.4L558.1.09h41.37s40.97.02,40.97.02Zm-13.61,35.9l4.53-6.45c2.66-7.28-1.64-10.92-12.89-10.92h-23s-11.02,15.71-11.02,15.71l-5.69,8.11h36.47c4.72,0,8.58-2.14,11.6-6.44Z"></path><path class="cls-1" d="m698.87,65.65c-7.32,10.7-4.18,16.44,9.43,17.21h21.5s30.21.01,30.21.01l-12.76,18.2h-41.37s-18.24-.01-18.24-.01h-22.86c-19.13.1-27.29-5.8-24.47-17.71,1.12-4.96,3.85-10.86,8.2-17.7l13.58-19.36c6.9-8.93,14-16.6,21.3-23C701.04,7.96,718.52.24,735.84.13h22.05s19.05,0,19.05,0h41.1s-13,18.54-13,18.54h-33.34s-16.87-.01-16.87-.01c-12.98,0-24.32,5.24-34.02,15.71l-5.69,8.11,73.22.02-11.6,16.54-73.22-.02-4.64,6.62Z"></path><path class="cls-1" d="m883.62,101.1h-41.37s-18.24-.01-18.24-.01h-22.86c-19.13.1-27.29-5.8-24.47-17.71,1.12-4.96,3.85-10.86,8.2-17.7l13.58-19.36L830.83.15h50.36s-24.02,34.26-24.02,34.26l-21.93,31.27c-7.32,10.7-4.18,16.44,9.43,17.21h51.72s-12.76,18.21-12.76,18.21Z"></path></g><polygon class="cls-1" points="44.11 126.3 329.31 126.3 286.21 168.4 0 168.4 44.11 126.3"></polygon><g><path class="cls-1" d="m369.71,129.7c6.37.04,9.38,1.72,9.04,5.04.08,1.8-.7,4.26-2.34,7.37-4.49,6.3-8.79,9.45-12.89,9.45h-21.01s-10.94,15.59-10.94,15.59h-18.69s9.22-13.14,9.22-13.14l17.05-24.31h15.35s15.2,0,15.2,0Zm-5.05,13.32l1.68-2.39c.99-2.7-.61-4.05-4.78-4.05h-8.53s-4.09,5.83-4.09,5.83l-2.11,3.01h13.53c1.75,0,3.19-.79,4.31-2.39Z"></path><path class="cls-1" d="m391.39,154.02c-2.72,3.97-1.55,6.1,3.5,6.38h7.98s11.21,0,11.21,0l-4.74,6.75h-15.35s-6.77,0-6.77,0h-8.48c-7.1.04-10.13-2.15-9.08-6.57.42-1.84,1.43-4.03,3.04-6.57l5.04-7.18c2.56-3.31,5.2-6.16,7.9-8.53,6.55-5.69,13.04-8.55,19.46-8.59h8.18s7.07,0,7.07,0h15.25s-4.82,6.88-4.82,6.88h-12.37s-6.26,0-6.26,0c-4.82,0-9.02,1.94-12.63,5.83l-2.11,3.01h27.17s-4.31,6.15-4.31,6.15h-27.17s-1.72,2.45-1.72,2.45Z"></path><path class="cls-1" d="m470.91,129.73c6.37.04,9.38,1.72,9.04,5.04.08,1.8-.7,4.26-2.34,7.37-4.49,6.3-8.78,9.45-12.89,9.45h-.81l-4.14,15.84h-9.29s-9.39,0-9.39,0l3.84-15.84h-1.21l-10.94,15.59h-3.43s-15.25,0-15.25,0l9.22-13.14,17.05-24.31h15.35s15.2,0,15.2,0Zm-5.05,13.32l1.68-2.39c.99-2.7-.61-4.05-4.78-4.05h-8.54s-4.09,5.83-4.09,5.83l-2.11,3.01h13.53c1.75,0,3.19-.79,4.31-2.39Z"></path><path class="cls-1" d="m464.7,167.18l14.25-20.32,12.01-17.13h18.69s-8.91,12.71-8.91,12.71l-17.35,24.74h-18.69Z"></path><path class="cls-1" d="m516.38,154.05l-9.22,13.14h-3.43s-15.25,0-15.25,0l9.22-13.14,5.04-7.18c2.56-3.31,5.2-6.16,7.91-8.53,6.55-5.69,13.04-8.55,19.46-8.59h8.18s7.07,0,7.07,0h15.25s-4.82,6.88-4.82,6.88h-12.37s-6.26,0-6.26,0c-4.82,0-9.02,1.94-12.63,5.83l-2.11,3.01h27.17s-4.31,6.14-4.31,6.14h-27.17s-1.72,2.45-1.72,2.45Z"></path><path class="cls-1" d="m566.98,154.06c-2.72,3.97-1.55,6.1,3.5,6.38h7.98s11.21,0,11.21,0l-4.74,6.75h-15.35s-6.77,0-6.77,0h-8.48c-7.1.04-10.13-2.15-9.08-6.57.41-1.84,1.43-4.03,3.04-6.57l5.04-7.18c2.56-3.31,5.2-6.16,7.91-8.53,6.55-5.69,13.04-8.55,19.46-8.59h8.18s7.07,0,7.07,0h15.25s-4.82,6.88-4.82,6.88h-12.37s-6.26,0-6.26,0c-4.82,0-9.02,1.94-12.63,5.83l-2.11,3.01h27.17s-4.31,6.14-4.31,6.14h-27.17s-1.72,2.45-1.72,2.45Z"></path><path class="cls-1" d="m646.5,129.77c6.37.04,9.38,1.72,9.04,5.04.08,1.8-.7,4.26-2.34,7.37-4.49,6.3-8.79,9.45-12.89,9.45h-.81l-4.14,15.84h-9.29s-9.39,0-9.39,0l3.84-15.84h-1.21s-10.94,15.59-10.94,15.59h-18.69s9.22-13.14,9.22-13.14l17.05-24.31h15.35s15.2,0,15.2,0Zm-5.05,13.32l1.68-2.39c.99-2.7-.61-4.05-4.78-4.05h-8.53s-4.09,5.83-4.09,5.83l-2.11,3.01h13.53c1.75,0,3.19-.79,4.31-2.39Z"></path><path class="cls-1" d="m640.29,167.22l14.25-20.32,12.01-17.13h18.69s-8.91,12.71-8.91,12.71l-17.35,24.74h-18.69Z"></path><path class="cls-1" d="m709.93,167.23h-15.35s-6.77,0-6.77,0h-8.48c-7.1.04-10.13-2.15-9.08-6.57.41-1.84,1.43-4.03,3.04-6.57l5.04-7.18c2.56-3.31,5.2-6.16,7.91-8.53,6.55-5.69,13.05-8.55,19.51-8.59h15.1s15.35,0,15.35,0l-4.82,6.88h-12.37s-6.26,0-6.26,0c-4.82,0-9.02,1.94-12.63,5.83l-8.14,11.6c-2.72,3.97-1.55,6.1,3.5,6.39h7.98s11.21,0,11.21,0l-4.74,6.75Z"></path><path class="cls-1" d="m729.97,167.24c-7.1.04-10.13-2.15-9.08-6.57.42-1.84,1.43-4.03,3.04-6.57l5.04-7.18c2.56-3.31,5.2-6.16,7.9-8.53,6.55-5.69,13.02-8.53,19.42-8.53l8.22-.06,6.98.06c6.4,0,8.88,2.85,7.45,8.54-.62,2.37-1.98,5.22-4.07,8.53l-5.04,7.18c-1.95,2.54-4.01,4.73-6.17,6.57-5.15,4.42-11.3,6.61-18.44,6.56h-6.77s-8.48,0-8.48,0Zm36.95-24.73c1.82-3.89.64-5.83-3.53-5.83-4.82,0-9.02,1.94-12.63,5.83l-8.14,11.6c-2.72,3.97-1.55,6.1,3.5,6.38,5.59-.28,9.75-2.33,12.49-6.14l8.31-11.85Z"></path><path class="cls-1" d="m781.35,151.53c-2.83-.57-2.58-3.27.73-8.1,1.52-1.88,3.87-4.17,7.04-6.88,5.48-4.46,11.44-6.71,17.87-6.75h8.18s7.07,0,7.07,0h15.25s-4.82,6.88-4.82,6.88h-12.37s-6.26,0-6.26,0c-4.82,0-9.01,1.92-12.58,5.77-1.38,1.96-.99,2.95,1.17,2.95h17.78c4.11,0,3.98,3.16-.37,9.46-2.72,3.11-5.39,5.56-7.99,7.37-4.31,3.31-9.68,4.99-16.11,5.03h-15.2s-15.35,0-15.35,0l4.82-6.88h27.22c4.17,0,7.66-1.34,10.47-4.04l1.68-2.39c1.12-1.6.8-2.39-.95-2.39h-27.27Z"></path></g></g></svg>